# xmcd
#
# Track frame offsets: 
#        150
#        19014
#        36695
#        54214
#        71385
#        89654
#        105890
#        120648
#        135427
#        151745
#
# Disc length: 2285 seconds
#
# Revision: 0
# Processed by: cddbd v1.5.2PL0 Copyright (c) Steve Scherf et al.
# Submitted via: ExactAudioCopy v0.99pb4
#
DISCID=7608eb0a
DTITLE=มนต์สิทธิ์ คำสร้อย - อกหัหตอนพักยก
DYEAR=2004
DGENRE=Country
TTITLE0=อกหักตอนพักยก
TTITLE1=อิจฉาดีเจ
TTITLE2=สาวอุบลลืมบ้าน
TTITLE3=ดอกคูนในคอน'
TTITLE4=แฟนเทพี
TTITLE5=ผู้พ่าย
TTITLE6=มาลี
TTITLE7=แล้วคำว่ารักก็เลือน
TTITLE8=อย่าร้องไห้
TTITLE9=บ่าวภูไทหัวใจพังเพ
EXTD=
EXTT0=
EXTT1=
EXTT2=
EXTT3=
EXTT4=
EXTT5=
EXTT6=
EXTT7=
EXTT8=
EXTT9=
PLAYORDER=
